<svg width="32" height="128" viewBox="0 0 32 128" fill="none" xmlns="http://www.w3.org/2000/svg">
<path fill-rule="evenodd" clip-rule="evenodd" d="M16 2C18.7689 2 21.4757 2.82109 23.778 4.35943C26.0803 5.89777 27.8747 8.08427 28.9343 10.6424C29.9939 13.2006 30.2712 16.0155 29.731 18.7313C29.1908 21.447 27.8574 23.9416 25.8995 25.8995C23.9416 27.8574 21.447 29.1908 18.7313 29.731C16.0155 30.2712 13.2006 29.9939 10.6424 28.9343C8.08427 27.8747 5.89777 26.0803 4.35943 23.778C2.82109 21.4757 2 18.7689 2 16C2 12.287 3.475 8.72601 6.1005 6.1005C8.72601 3.475 12.287 2 16 2V2ZM21.186 17.14C21.355 16.83 21.953 15.93 22.403 15.25C23.754 13.27 24.003 12.85 24.003 12.6C24.0022 12.5071 23.9648 12.4182 23.8989 12.3527C23.833 12.2872 23.7439 12.2503 23.651 12.25H20.486C20.4035 12.2498 20.3236 12.2788 20.2604 12.3318C20.1973 12.3849 20.1549 12.4587 20.141 12.54C19.4609 14.0079 18.5057 15.3318 17.327 16.44C17.1751 16.3161 17.0614 16.1518 16.9991 15.9659C16.9368 15.7801 16.9284 15.5804 16.975 15.39V12.45C16.9944 12.3359 16.9895 12.219 16.9606 12.107C16.9316 11.995 16.8793 11.8904 16.807 11.8C16.567 11.55 16.207 11.55 15.207 11.55C13.392 11.55 12.745 12.09 12.745 12.6C12.7378 12.6854 12.7647 12.7701 12.8198 12.8357C12.8749 12.9013 12.9537 12.9424 13.039 12.95H13.061C13.061 12.95 13.448 13.2 13.448 14.7C13.4676 15.2815 13.4371 15.8637 13.357 16.44C12.463 16.28 11.225 14.07 10.634 12.47C10.6061 12.401 10.5572 12.3426 10.4942 12.3031C10.4311 12.2636 10.3572 12.245 10.283 12.25H7.469C7.37673 12.2486 7.28759 12.2835 7.22067 12.347C7.15376 12.4106 7.11439 12.4978 7.111 12.59C7.11056 12.6135 7.11257 12.6369 7.117 12.66C7.511 14.77 11.978 21.33 14.855 21.33H16.262C17.008 21.33 17.062 20.53 17.106 20C17.15 19.47 17.183 19.24 17.317 19.24C18.043 19.5122 18.6973 19.9465 19.23 20.51C19.5644 20.8933 19.9979 21.177 20.483 21.33H22.241C23.149 21.33 24 21.33 24 20.63C24 20.37 23.768 20.06 22.431 18.54C22.0063 18.0821 21.5912 17.6153 21.186 17.14Z" fill="black" fill-opacity="0.4"/>
<path fill-rule="evenodd" clip-rule="evenodd" d="M16 48C19.1645 48 22.2579 48.9384 24.8891 50.6965C27.5203 52.4546 29.5711 54.9534 30.7821 57.8771C31.9931 60.8007 32.3099 64.0177 31.6926 67.1214C31.0752 70.2251 29.5513 73.0761 27.3137 75.3137C25.0761 77.5513 22.2251 79.0752 19.1214 79.6926C16.0177 80.3099 12.8007 79.9931 9.87706 78.7821C6.95345 77.5711 4.45459 75.5203 2.69649 72.8891C0.938384 70.2579 0 67.1645 0 64C0 59.7565 1.68571 55.6869 4.68629 52.6863C7.68687 49.6857 11.7565 48 16 48V48ZM24.6629 58.0114C24.436 57.3992 24.0761 56.8449 23.6091 56.3886C23.1559 55.9211 22.6032 55.5618 21.992 55.3371C21.283 55.0661 20.5316 54.923 19.7726 54.9143C18.7977 54.8686 18.4869 54.8571 16.0011 54.8571C13.5154 54.8571 13.2023 54.8571 12.2297 54.9143C11.471 54.9222 10.7198 55.0654 10.0114 55.3371C9.39979 55.5615 8.84664 55.9209 8.39314 56.3886C7.92616 56.8447 7.5666 57.399 7.34057 58.0114C7.07283 58.7206 6.9294 59.4706 6.91657 60.2286C6.87428 61.2 6.86057 61.5086 6.86057 64C6.86057 66.4914 6.86743 66.8 6.91657 67.7714C6.93062 68.5292 7.07401 69.2791 7.34057 69.9886C7.56936 70.5996 7.92855 71.1534 8.39314 71.6114C8.85275 72.0717 9.40415 72.4299 10.0114 72.6629C10.7216 72.9284 11.4717 73.0714 12.2297 73.0857C13.2046 73.1314 13.5166 73.1429 16.0011 73.1429C18.4857 73.1429 18.7989 73.1314 19.7726 73.0857C20.5311 73.0721 21.2816 72.9291 21.992 72.6629C22.5988 72.4296 23.1497 72.0714 23.6091 71.6114C24.0737 71.1531 24.4332 70.5994 24.6629 69.9886C24.9284 69.2788 25.0714 68.5291 25.0857 67.7714C25.1291 66.8 25.1429 66.48 25.1429 64C25.1429 61.52 25.136 61.2 25.0857 60.2286C25.0738 59.4707 24.9308 58.7205 24.6629 58.0114V58.0114ZM23.44 67.6914C23.4344 68.2695 23.3269 68.8421 23.1223 69.3829C22.9772 69.7845 22.7427 70.1479 22.4366 70.4457C22.1378 70.7458 21.7792 70.9794 21.384 71.1314C20.8411 71.3329 20.267 71.4373 19.688 71.44C18.72 71.4857 18.4377 71.4971 15.9931 71.4971C13.5486 71.4971 13.2583 71.4971 12.2971 71.44C11.718 71.4381 11.1438 71.3336 10.6011 71.1314C10.2068 70.9777 9.84849 70.7443 9.54857 70.4457C9.24468 70.1461 9.01056 69.7832 8.86286 69.3829C8.65956 68.8418 8.55205 68.2694 8.54514 67.6914C8.50286 66.72 8.48914 66.4343 8.48914 64C8.48914 61.5657 8.496 61.2686 8.54514 60.2971C8.5534 59.7193 8.66087 59.1472 8.86286 58.6057C9.01598 58.2113 9.24965 57.8531 9.54894 57.554C9.84824 57.2549 10.2066 57.0214 10.6011 56.8686C11.1445 56.6674 11.7178 56.5592 12.2971 56.5486C13.2651 56.5029 13.5543 56.4914 15.9931 56.4914C18.432 56.4914 18.7269 56.5029 19.688 56.5486C20.2674 56.5583 20.8409 56.6665 21.384 56.8686C21.7827 57.0137 22.1427 57.2483 22.4366 57.5543C22.7403 57.8496 22.9745 58.2087 23.1223 58.6057C23.3243 59.1472 23.4317 59.7193 23.44 60.2971C23.4823 61.2686 23.496 61.5543 23.496 64C23.496 66.4457 23.4823 66.7314 23.44 67.6914ZM15.9931 59.3029C15.0642 59.3031 14.1562 59.5788 13.3839 60.095C12.6116 60.6113 12.0097 61.345 11.6544 62.2033C11.299 63.0616 11.2062 64.006 11.3875 64.9171C11.5689 65.8281 12.0164 66.665 12.6733 67.3218C13.3303 67.9786 14.1672 68.4258 15.0783 68.607C15.9895 68.7881 16.9338 68.695 17.7921 68.3395C18.6503 67.9839 19.3838 67.3819 19.8999 66.6095C20.416 65.8371 20.6914 64.929 20.6914 64C20.6908 62.7542 20.1956 61.5597 19.3146 60.6789C18.4336 59.7981 17.2389 59.3032 15.9931 59.3029V59.3029ZM15.9931 67.0514C15.3896 67.0514 14.7997 66.8725 14.2979 66.5372C13.7961 66.2019 13.4049 65.7253 13.174 65.1677C12.943 64.6102 12.8826 63.9966 13.0003 63.4047C13.1181 62.8128 13.4087 62.2691 13.8355 61.8423C14.2622 61.4156 14.8059 61.1249 15.3978 61.0072C15.9898 60.8895 16.6033 60.9499 17.1609 61.1808C17.7184 61.4118 18.195 61.8029 18.5303 62.3047C18.8656 62.8065 19.0446 63.3965 19.0446 64C19.0431 64.8088 18.7211 65.5841 18.1492 66.156C17.5772 66.7279 16.802 67.0499 15.9931 67.0514V67.0514ZM20.8754 58.0229C21.0908 58.0238 21.3012 58.0884 21.4799 58.2086C21.6587 58.3288 21.7979 58.4993 21.88 58.6985C21.962 58.8976 21.9833 59.1166 21.9412 59.3279C21.899 59.5392 21.7952 59.7332 21.643 59.8856C21.4907 60.038 21.2968 60.142 21.0856 60.1844C20.8744 60.2268 20.6553 60.2057 20.4561 60.1238C20.2568 60.042 20.0862 59.903 19.9658 59.7243C19.8454 59.5457 19.7806 59.3354 19.7794 59.12C19.7793 58.976 19.8075 58.8333 19.8625 58.7002C19.9175 58.5671 19.9982 58.4462 20.1 58.3443C20.2018 58.2424 20.3227 58.1615 20.4557 58.1064C20.5888 58.0512 20.7314 58.0229 20.8754 58.0229V58.0229Z" fill="white"/>
<path fill-rule="evenodd" clip-rule="evenodd" d="M16 50C18.7689 50 21.4757 50.8211 23.778 52.3594C26.0803 53.8978 27.8747 56.0843 28.9343 58.6424C29.9939 61.2006 30.2712 64.0155 29.731 66.7313C29.1908 69.447 27.8574 71.9416 25.8995 73.8995C23.9416 75.8574 21.447 77.1908 18.7313 77.731C16.0155 78.2712 13.2006 77.9939 10.6424 76.9343C8.08427 75.8747 5.89777 74.0803 4.35943 71.778C2.82109 69.4757 2 66.7689 2 64C2 60.287 3.475 56.726 6.1005 54.1005C8.72601 51.475 12.287 50 16 50V50ZM23.58 58.76C23.3815 58.2243 23.0666 57.7393 22.658 57.34C22.2614 56.931 21.7778 56.6165 21.243 56.42C20.6226 56.1829 19.9651 56.0576 19.301 56.05C18.448 56.01 18.176 56 16.001 56C13.826 56 13.552 56 12.701 56.05C12.0371 56.0569 11.3799 56.1822 10.76 56.42C10.2248 56.6163 9.74081 56.9307 9.344 57.34C8.93539 57.7391 8.62078 58.2242 8.423 58.76C8.18873 59.3805 8.06322 60.0368 8.052 60.7C8.015 61.55 8.003 61.82 8.003 64C8.003 66.18 8.009 66.45 8.052 67.3C8.06429 67.9631 8.18976 68.6192 8.423 69.24C8.62319 69.7746 8.93748 70.2592 9.344 70.66C9.74615 71.0627 10.2286 71.3762 10.76 71.58C11.3814 71.8124 12.0377 71.9375 12.701 71.95C13.554 71.99 13.827 72 16.001 72C18.175 72 18.449 71.99 19.301 71.95C19.9647 71.9381 20.6214 71.813 21.243 71.58C21.7739 71.3759 22.256 71.0624 22.658 70.66C23.0645 70.259 23.3791 69.7745 23.58 69.24C23.8124 68.619 23.9375 67.963 23.95 67.3C23.988 66.45 24 66.17 24 64C24 61.83 23.994 61.55 23.95 60.7C23.9396 60.0368 23.8144 59.3805 23.58 58.76ZM22.51 67.23C22.5051 67.7358 22.411 68.2369 22.232 68.71C22.105 69.0614 21.8999 69.3794 21.632 69.64C21.3706 69.9025 21.0568 70.107 20.711 70.24C20.236 70.4163 19.7337 70.5077 19.227 70.51C18.38 70.55 18.133 70.56 15.994 70.56C13.855 70.56 13.601 70.56 12.76 70.51C12.2533 70.5084 11.7508 70.4169 11.276 70.24C10.931 70.1055 10.6174 69.9013 10.355 69.64C10.0891 69.3778 9.88424 69.0603 9.755 68.71C9.57712 68.2365 9.48304 67.7357 9.477 67.23C9.44 66.38 9.428 66.13 9.428 64C9.428 61.87 9.434 61.61 9.477 60.76C9.48423 60.2544 9.57826 59.7538 9.755 59.28C9.88898 58.9349 10.0934 58.6214 10.3553 58.3597C10.6172 58.098 10.9308 57.8938 11.276 57.76C11.7514 57.584 12.2531 57.4893 12.76 57.48C13.607 57.44 13.86 57.43 15.994 57.43C18.128 57.43 18.386 57.44 19.227 57.48C19.734 57.4885 20.2358 57.5832 20.711 57.76C21.0598 57.887 21.3749 58.0922 21.632 58.36C21.8977 58.6184 22.1027 58.9326 22.232 59.28C22.4087 59.7538 22.5028 60.2544 22.51 60.76C22.547 61.61 22.559 61.86 22.559 64C22.559 66.14 22.547 66.39 22.51 67.23ZM15.994 59.89C15.1812 59.8902 14.3866 60.1314 13.7109 60.5831C13.0351 61.0349 12.5085 61.6768 12.1976 62.4279C11.8866 63.1789 11.8054 64.0052 11.9641 64.8024C12.1228 65.5996 12.5143 66.3319 13.0891 66.9066C13.664 67.4813 14.3963 67.8726 15.1935 68.0311C15.9908 68.1896 16.8171 68.1082 17.5681 67.797C18.319 67.4859 18.9608 66.9592 19.4124 66.2833C19.864 65.6074 20.105 64.8128 20.105 64C20.1045 62.9099 19.6711 61.8647 18.9003 61.094C18.1294 60.3233 17.0841 59.8903 15.994 59.89ZM15.994 66.67C15.4659 66.67 14.9497 66.5134 14.5106 66.22C14.0715 65.9266 13.7293 65.5096 13.5272 65.0218C13.3252 64.5339 13.2723 63.997 13.3753 63.4791C13.4783 62.9612 13.7326 62.4854 14.106 62.112C14.4794 61.7386 14.9552 61.4843 15.4731 61.3813C15.991 61.2783 16.5279 61.3312 17.0158 61.5332C17.5036 61.7353 17.9206 62.0775 18.214 62.5166C18.5074 62.9557 18.664 63.4719 18.664 64C18.6627 64.7077 18.381 65.3861 17.8805 65.8865C17.3801 66.387 16.7017 66.6687 15.994 66.67ZM20.266 58.77C20.4545 58.7708 20.6385 58.8273 20.795 58.9325C20.9514 59.0377 21.0731 59.1869 21.145 59.3612C21.2168 59.5354 21.2354 59.7271 21.1985 59.9119C21.1616 60.0968 21.0708 60.2666 20.9376 60.3999C20.8044 60.5333 20.6347 60.6242 20.4499 60.6613C20.2651 60.6984 20.0734 60.68 19.8991 60.6083C19.7247 60.5367 19.5755 60.4151 19.4701 60.2588C19.3647 60.1025 19.308 59.9185 19.307 59.73C19.3069 59.604 19.3316 59.4792 19.3797 59.3627C19.4278 59.2462 19.4985 59.1404 19.5875 59.0512C19.6766 58.9621 19.7824 58.8914 19.8988 58.8431C20.0152 58.7948 20.14 58.77 20.266 58.77Z" fill="black" fill-opacity="0.4"/>
<path fill-rule="evenodd" clip-rule="evenodd" d="M16 98C18.7689 98 21.4757 98.8211 23.778 100.359C26.0803 101.898 27.8747 104.084 28.9343 106.642C29.9939 109.201 30.2712 112.016 29.731 114.731C29.1908 117.447 27.8574 119.942 25.8995 121.899C23.9416 123.857 21.447 125.191 18.7313 125.731C16.0155 126.271 13.2006 125.994 10.6424 124.934C8.08427 123.875 5.89777 122.08 4.35943 119.778C2.82109 117.476 2 114.769 2 112C2 108.287 3.475 104.726 6.1005 102.101C8.72601 99.475 12.287 98 16 98V98ZM22.855 109.16C22.7892 108.651 22.5981 108.167 22.299 107.75C21.9297 107.373 21.4265 107.158 20.899 107.15C18.941 107.01 15.999 107.01 15.999 107.01H15.993C15.993 107.01 13.055 107.01 11.093 107.15C10.5653 107.157 10.0619 107.373 9.693 107.75C9.39348 108.167 9.2024 108.651 9.137 109.16C9.04984 109.924 9.00311 110.691 8.997 111.46V112.54C9.00311 113.309 9.04984 114.076 9.137 114.84C9.2024 115.349 9.39348 115.833 9.693 116.25C10.1155 116.635 10.6644 116.852 11.236 116.86C12.356 116.97 15.994 117 15.994 117C15.994 117 18.935 116.99 20.894 116.85C21.1557 116.849 21.4144 116.795 21.6549 116.692C21.8954 116.589 22.1128 116.439 22.294 116.25C22.5931 115.833 22.7842 115.349 22.85 114.84C22.9372 114.076 22.9839 113.309 22.99 112.54V111.46C22.9855 110.691 22.9405 109.924 22.855 109.16ZM14.555 113.85V109.85L18.336 111.86L14.555 113.85Z" fill="black" fill-opacity="0.4"/>
</svg>
